<svg xmlns="http://www.w3.org/2000/svg" viewBox="0 0 806.62 931.4"><defs><style>.cls-1{fill:#4a4a4a;}.cls-2{fill:#4a4a4a;}</style></defs><g id="background"><path class="cls-1" d="M500,36,96.69,268.83v465.7L500,967.38,903.31,734.53V268.83ZM867,710,502.62,920.36,138.22,710V289.21L502.62,78.83,867,289.21Z" transform="translate(-96.69 -35.98)"/></g><g id="leaf"><path class="cls-2" d="M263.47,624.23c-27.65-39.2-32.67-78.41-34.47-94-5.26-45.37,5.52-80,14.55-109,10.83-34.78,24.07-58.33,41.62-89.11A786.06,786.06,0,0,1,359.89,223.6a865.86,865.86,0,0,1,93.79,71.83c23.61,20.8,41.4,36.62,61,61,27.38,34,44.67,65.38,53.7,90,4,11,12.17,44.9,12,45.17-.06.1-33.18,14.62-41.86,20s-24.63,15-40,33.19a149.29,149.29,0,0,0-31,63.45c-6.61,29.93-3.67,50.23-3.67,50.23s-34.33-98.61-38.67-114c-15.6-55.12-23.4-82.69-26.22-99.91-4.53-27.75-18.25-87.58-18.25-87.58s-.5,48.23-1.41,66.9c-.88,18.25,3.15,111,7.92,146C393,611.47,402.67,663.76,405.68,684c.38,2.56,5.71,34.32,5.81,35.14A298,298,0,0,1,334,685.68C312.7,672.61,286.07,656.28,263.47,624.23Z" transform="translate(-96.69 -35.98)"/><path class="cls-2" d="M494,651.81C497.42,617,511.89,592.89,515,588c25.42-40.73,65.82-56.22,88.34-64.85,35.9-13.77,67.46-15.2,115.31-17.35,21.17-.95,38.88-.69,51.41-.24a561,561,0,0,1-3.45,93.55c-2.56,21.08-5,40.46-13,65.31-7.55,23.58-14.32,44.65-32,65.71-22.44,26.71-49.72,38-60.26,41.87,0,0-45.24,16.39-105,.34L552,771.09s9.54-18.45,18.68-34c4.59-7.59,10.71-17.34,18.29-28.45,8-11.72,15.2-22.35,25.56-34.87,18.1-21.88,42.54-45.64,48.67-52.2,1.08-1.15,4.33-4.62,3.25-3.46,0,0-23.43,14-33.54,20.25-14.59,9-28.08,19.15-34.55,24C564,688.12,546.88,701,529.94,720.74a200.26,200.26,0,0,1-17.88,17.88,141.59,141.59,0,0,1-11.53-25.53A150.46,150.46,0,0,1,494,651.81Z" transform="translate(-96.69 -35.98)"/></g></svg>
